<svg width="1076" height="1786" viewBox="0 0 1076 1786" fill="none" xmlns="http://www.w3.org/2000/svg">
<path d="M538 298.5C824.912 298.5 1057.5 531.088 1057.5 818V1286C1057.5 1551.93 841.925 1767.5 576 1767.5H500C234.075 1767.5 18.5 1551.93 18.5 1286V818C18.5 531.088 251.088 298.5 538 298.5Z" fill="white" stroke="#7A28D7" stroke-width="37"/>
<path d="M53 818C53 554.56 266.56 341 530 341V341V1074H53V818Z" fill="#88CDEA"/>
<line x1="537" y1="343" x2="537" y2="1074" stroke="#7A28D7" stroke-width="14"/>
<rect x="460" y="486" width="140" height="299" rx="70" fill="#D9D9D9" stroke="#7A28D7" stroke-width="20"/>
<circle cx="254" cy="617" r="91" fill="#F655BC"/>
<path d="M538.5 301.5C524.501 94.5 625.5 55.5 644.5 -47" stroke="#7A28D7" stroke-width="21"/>
</svg>
